<svg width="376" height="88" viewBox="0 0 376 88" fill="none" xmlns="http://www.w3.org/2000/svg">
<g clip-path="url(#clip0_534_1998)">
<path d="M28.128 70.792C23.304 70.792 19.776 68.344 18.336 66.4V70H7.464V16H18.336V37.6C19.776 35.656 23.304 33.208 28.128 33.208C37.56 33.208 44.832 41.776 44.832 52C44.832 62.224 37.56 70.792 28.128 70.792ZM25.68 60.928C30.576 60.928 33.888 57.184 33.888 52C33.888 46.816 30.576 43.072 25.68 43.072C20.784 43.072 17.472 46.816 17.472 52C17.472 57.184 20.784 60.928 25.68 60.928ZM65.4442 70.792C55.0762 70.792 46.5082 62.584 46.5082 52C46.5082 41.416 55.0762 33.208 65.4442 33.208C75.8123 33.208 84.3803 41.416 84.3803 52C84.3803 62.584 75.8123 70.792 65.4442 70.792ZM65.4442 60.64C69.9803 60.64 73.4363 57.112 73.4363 52C73.4363 46.888 69.9803 43.36 65.4442 43.36C60.9082 43.36 57.4522 46.888 57.4522 52C57.4522 57.112 60.9082 60.64 65.4442 60.64ZM88.1884 70V34H99.0604V37.672C100.932 35.152 104.028 33.208 108.276 33.208C113.46 33.208 117.204 35.584 119.436 39.544C121.74 35.152 126.708 33.208 130.452 33.208C139.236 33.208 144.132 39.472 144.132 49.48V70H133.26V51.352C133.26 46.096 131.748 43.072 128.076 43.072C124.26 43.072 121.596 45.952 121.596 52.504V70H110.724V51.352C110.724 46.096 109.212 43.072 105.54 43.072C101.724 43.072 99.0604 45.952 99.0604 52.504V70H88.1884ZM170.379 70.792C165.555 70.792 162.027 68.344 160.587 66.4V70H149.715V16H160.587V37.6C162.027 35.656 165.555 33.208 170.379 33.208C179.811 33.208 187.083 41.776 187.083 52C187.083 62.224 179.811 70.792 170.379 70.792ZM167.931 60.928C172.827 60.928 176.139 57.184 176.139 52C176.139 46.816 172.827 43.072 167.931 43.072C163.035 43.072 159.723 46.816 159.723 52C159.723 57.184 163.035 60.928 167.931 60.928ZM196.391 29.104C192.719 29.104 189.623 26.08 189.623 22.336C189.623 18.592 192.719 15.568 196.391 15.568C200.207 15.568 203.231 18.592 203.231 22.336C203.231 26.08 200.207 29.104 196.391 29.104ZM190.991 70V34H201.863V70H190.991ZM223.635 85.768C217.875 85.768 211.323 84.256 206.931 80.44L212.619 72.304C215.859 75.112 219.963 76.264 223.491 76.264C229.251 76.264 232.419 72.16 232.419 67.12V65.104C230.763 67.552 227.019 69.496 222.627 69.496C213.411 69.496 205.779 61.432 205.779 51.352C205.779 41.272 213.411 33.208 222.627 33.208C227.019 33.208 230.763 35.152 232.419 37.6V34H243.291V66.976C243.291 80.296 234.867 85.768 223.635 85.768ZM225.003 59.632C229.395 59.632 233.283 56.392 233.283 51.352C233.283 46.312 229.395 43.072 225.003 43.072C220.611 43.072 216.723 46.312 216.723 51.352C216.723 56.392 220.611 59.632 225.003 59.632ZM255.118 70.576C250.87 70.576 247.414 67.12 247.414 62.872C247.414 58.624 250.87 55.168 255.118 55.168C259.366 55.168 262.822 58.624 262.822 62.872C262.822 67.12 259.366 70.576 255.118 70.576ZM267.007 70V34H277.879V37.672C279.607 35.224 283.207 33.208 287.887 33.208C296.743 33.208 301.855 39.76 301.855 49.192V70H290.983V51.064C290.983 46.096 289.039 43.072 285.151 43.072C281.047 43.072 277.879 46.024 277.879 52.504V70H267.007ZM324.432 70.792C313.848 70.792 305.28 63.592 305.28 52C305.28 41.272 313.272 33.208 324.216 33.208C333.72 33.208 342.144 39.112 342.144 50.776C342.144 51.712 342.144 52.864 341.928 54.592H315.792C316.44 58.912 320.472 60.928 324.576 60.928C328.752 60.928 331.92 58.912 333.288 56.824L341.352 62.872C337.968 67.624 331.992 70.792 324.432 70.792ZM323.928 42.064C320.76 42.064 317.016 43.504 316.08 47.464H331.344C330.408 43.648 327.096 42.064 323.928 42.064ZM363.771 70.432C355.779 70.432 349.299 65.968 349.299 56.824V43.432H342.099V34H349.299V23.992H360.171V34H370.251V43.432H360.171V54.592C360.171 58.912 361.971 60.712 366.291 60.712C367.947 60.712 369.099 60.496 370.251 60.064V69.712C368.667 70.144 366.651 70.432 363.771 70.432Z" fill="white"/>
</g>
<defs>
<clipPath id="clip0_534_1998">
<rect width="376" height="88" fill="white"/>
</clipPath>
</defs>
</svg>
